<svg xmlns="http://www.w3.org/2000/svg" version="1.1" xmlns:xlink="http://www.w3.org/1999/xlink" xmlns:svgjs="http://svgjs.dev/svgjs" width="1500" height="1500" viewBox="0 0 1500 1500"><rect width="1500" height="1500" fill="#ffffff"></rect><g transform="matrix(0.6666666666666666,0,0,0.6666666666666666,249.39393939393938,577.2187011604959)"><svg viewBox="0 0 396 136" data-background-color="#edeae0" preserveAspectRatio="xMidYMid meet" height="515" width="1500" xmlns="http://www.w3.org/2000/svg" xmlns:xlink="http://www.w3.org/1999/xlink"><g id="tight-bounds" transform="matrix(1,0,0,1,0.2400000000000091,0.44152420050258456)"><svg viewBox="0 0 395.52 135.11695159899483" height="135.11695159899483" width="395.52"><g><svg viewBox="0 0 397.4975999999999 135.79253635698979" height="135.11695159899483" width="395.52"><g><rect width="397.4975999999999" height="2.459639585492465" x="0" y="76.32511492557381" fill="#000000" opacity="1" stroke-width="0" stroke="transparent" fill-opacity="1" class="rect-yte-0" data-fill-palette-color="secondary" rx="1%" id="yte-0" data-palette-color="#958bbf"></rect></g><g transform="matrix(1,0,0,1,0.9887999999999693,85.22360159350728)"><svg viewBox="0 0 395.52 50.568934763482495" height="50.568934763482495" width="395.52"><g id="textblocktransform"><svg viewBox="0 0 395.52 50.568934763482495" height="50.568934763482495" width="395.52" id="textblock"><g><svg viewBox="0 0 395.52 27.274467046379165" height="27.274467046379165" width="395.52"><g transform="matrix(1,0,0,1,0,0)"><svg width="395.52" viewBox="2.15 -39.25 737.33 50.85" height="27.274467046379165" data-palette-color="#b3415a"><path d="M2.15-33.75L2.15 0 7.28 0 7.28-14.13 22.1-14.13 22.1-17.53 7.28-17.53 7.28-30.2 23.4-30.2 23.4-33.75 2.15-33.75ZM28.52-39.25L28.52 0 33.6 0 33.6-39.25 28.52-39.25ZM48.97 0.28L48.97 0.28Q51.14 0.28 52.86-0.11 54.57-0.5 55.82-1.11 57.07-1.73 57.87-2.43 58.67-3.13 59-3.75L59-3.75 59.42 0 63.64 0 63.64-18.85Q63.64-22.85 62.21-25.28 60.77-27.7 58.02-28.8 55.27-29.9 51.32-29.9L51.32-29.9Q48.97-29.9 46.92-29.41 44.87-28.93 43.26-27.88 41.64-26.83 40.56-25.13 39.47-23.43 39.07-20.98L39.07-20.98 44.02-19.65Q44.39-22.13 45.38-23.61 46.37-25.1 47.89-25.78 49.42-26.45 51.34-26.45L51.34-26.45Q53.57-26.45 55.2-25.7 56.82-24.95 57.7-23.34 58.57-21.73 58.57-19.1L58.57-19.1 58.57-17.43 48.89-17.43Q46.57-17.43 44.7-17 42.82-16.57 41.51-15.59 40.2-14.6 39.49-12.91 38.8-11.23 38.8-8.68L38.8-8.68Q38.8-6.03 39.51-4.29 40.22-2.55 41.58-1.55 42.95-0.55 44.81-0.14 46.67 0.28 48.97 0.28ZM50.07-3.05L50.07-3.05Q48.8-3.05 47.67-3.31 46.55-3.58 45.7-4.2 44.84-4.83 44.38-5.95 43.92-7.08 43.92-8.88L43.92-8.88Q43.92-10.63 44.39-11.75 44.87-12.88 45.71-13.49 46.55-14.1 47.67-14.34 48.8-14.58 50.07-14.58L50.07-14.58 58.5-14.58 58.5-6.85Q58.07-5.93 56.95-5.05 55.82-4.17 54.08-3.61 52.34-3.05 50.07-3.05ZM81.27 0.33L81.27 0.33Q84.02 0.33 86.52-0.3L86.52-0.3 86.52-3.73Q84.79-3.15 82.97-3.15L82.97-3.15Q80.92-3.15 79.79-4.03 78.67-4.9 78.67-7.63L78.67-7.63 78.67-26.08 88.47-26.08 88.47-29.63 78.67-29.63 78.67-36.33 73.59-36.33 73.59-29.63 66.67-29.63 66.67-26.08 73.59-26.08 73.59-6.45Q73.59-2.55 75.79-1.11 77.99 0.33 81.27 0.33ZM105.59 0.23L105.59 0.23Q113.09 0.23 115.95-3.65 118.82-7.53 118.82-13.4L118.82-13.4 113.62-13.4Q113.62-8.05 111.58-5.69 109.54-3.33 105.54-3.33L105.54-3.33Q101.47-3.33 99.2-5.94 96.94-8.55 96.94-16.95L96.94-16.95Q96.94-25.33 99.2-27.9 101.47-30.48 105.54-30.48L105.54-30.48Q109.54-30.48 111.58-28.18 113.62-25.88 113.62-20.48L113.62-20.48 118.82-20.48Q118.82-26.45 115.95-30.24 113.09-34.02 105.57-34.02L105.57-34.02Q98.02-34.02 94.89-29.98 91.77-25.93 91.77-16.95L91.77-16.95Q91.77-7.98 94.9-3.88 98.04 0.23 105.59 0.23ZM133.09 0.28L133.09 0.28Q135.26 0.28 136.98-0.11 138.69-0.5 139.94-1.11 141.19-1.73 141.99-2.43 142.79-3.13 143.11-3.75L143.11-3.75 143.54 0 147.76 0 147.76-18.85Q147.76-22.85 146.33-25.28 144.89-27.7 142.14-28.8 139.39-29.9 135.44-29.9L135.44-29.9Q133.09-29.9 131.04-29.41 128.99-28.93 127.38-27.88 125.76-26.83 124.68-25.13 123.59-23.43 123.19-20.98L123.19-20.98 128.14-19.65Q128.51-22.13 129.5-23.61 130.49-25.1 132.01-25.78 133.54-26.45 135.46-26.45L135.46-26.45Q137.69-26.45 139.31-25.7 140.94-24.95 141.81-23.34 142.69-21.73 142.69-19.1L142.69-19.1 142.69-17.43 133.01-17.43Q130.69-17.43 128.81-17 126.94-16.57 125.63-15.59 124.31-14.6 123.61-12.91 122.91-11.23 122.91-8.68L122.91-8.68Q122.91-6.03 123.63-4.29 124.34-2.55 125.7-1.55 127.06-0.55 128.93-0.14 130.79 0.28 133.09 0.28ZM134.19-3.05L134.19-3.05Q132.91-3.05 131.79-3.31 130.66-3.58 129.81-4.2 128.96-4.83 128.5-5.95 128.04-7.08 128.04-8.88L128.04-8.88Q128.04-10.63 128.51-11.75 128.99-12.88 129.83-13.49 130.66-14.1 131.79-14.34 132.91-14.58 134.19-14.58L134.19-14.58 142.61-14.58 142.61-6.85Q142.19-5.93 141.06-5.05 139.94-4.17 138.2-3.61 136.46-3.05 134.19-3.05ZM170.89-15.83L170.89-15.83 175.94-15.83Q175.94-23.15 173.97-26.51 172.01-29.88 166.96-29.88L166.96-29.88Q162.06-29.88 159.16-27.2 156.26-24.53 156.26-20.73L156.26-20.73 158.21-19.3Q158.21-22.03 160.06-24.19 161.91-26.35 165.14-26.35L165.14-26.35Q167.96-26.35 169.42-24.14 170.89-21.93 170.89-15.83ZM153.19-29.63L153.19 0 158.24 0 158.24-23.9 157.16-29.63 153.19-29.63ZM192.76 0.25L192.76 0.25 192.76-3.1Q188.96-3.1 186.83-5.88L186.83-5.88Q184.68-8.6 184.68-14.88L184.68-14.88Q184.68-21.5 186.91-24.05L186.91-24.05Q189.11-26.58 192.68-26.58L192.68-26.58Q196.36-26.58 198.41-24.18L198.41-24.18Q200.18-21.93 200.38-16.48L200.38-16.48 184.13-16.48 184.13-13.33 205.38-13.33Q205.48-14.08 205.48-14.95L205.48-14.95Q205.48-22.38 202.53-26.15L202.53-26.15Q199.56-29.93 192.68-29.93L192.68-29.93Q186.01-29.93 182.91-26.15L182.91-26.15Q179.78-22.4 179.78-14.88L179.78-14.88Q179.78-7.78 182.83-3.75L182.83-3.75Q185.86 0.25 192.76 0.25ZM192.76-3.1L192.76-3.1 192.76 0.25Q196.51 0.25 198.96-0.73L198.96-0.73Q201.41-1.7 202.96-3.85L202.96-3.85Q204.48-5.98 204.91-9.03L204.91-9.03 200.36-10.25Q199.93-8.05 199.08-6.3L199.08-6.3Q198.18-4.55 196.56-3.83L196.56-3.83Q194.93-3.1 192.76-3.1ZM222.6-33.75L222.6 0 227.63 0 227.63-30.2 227.75-30.2 236.78-1.85 242.88-1.85 251.9-30.2 252.03-30.2 252.03 0 257.05 0 257.05-33.75 248.73-33.75 239.88-5.5 239.78-5.5 230.93-33.75 222.6-33.75ZM272.4 0.28L272.4 0.28Q274.58 0.28 276.29-0.11 278-0.5 279.25-1.11 280.5-1.73 281.3-2.43 282.1-3.13 282.43-3.75L282.43-3.75 282.85 0 287.08 0 287.08-18.85Q287.08-22.85 285.64-25.28 284.2-27.7 281.45-28.8 278.7-29.9 274.75-29.9L274.75-29.9Q272.4-29.9 270.35-29.41 268.3-28.93 266.69-27.88 265.08-26.83 263.99-25.13 262.9-23.43 262.5-20.98L262.5-20.98 267.45-19.65Q267.83-22.13 268.81-23.61 269.8-25.1 271.33-25.78 272.85-26.45 274.78-26.45L274.78-26.45Q277-26.45 278.63-25.7 280.25-24.95 281.13-23.34 282-21.73 282-19.1L282-19.1 282-17.43 272.33-17.43Q270-17.43 268.13-17 266.25-16.57 264.94-15.59 263.63-14.6 262.93-12.91 262.23-11.23 262.23-8.68L262.23-8.68Q262.23-6.03 262.94-4.29 263.65-2.55 265.01-1.55 266.38-0.55 268.24-0.14 270.1 0.28 272.4 0.28ZM273.5-3.05L273.5-3.05Q272.23-3.05 271.1-3.31 269.98-3.58 269.13-4.2 268.28-4.83 267.81-5.95 267.35-7.08 267.35-8.88L267.35-8.88Q267.35-10.63 267.83-11.75 268.3-12.88 269.14-13.49 269.98-14.1 271.1-14.34 272.23-14.58 273.5-14.58L273.5-14.58 281.93-14.58 281.93-6.85Q281.5-5.93 280.38-5.05 279.25-4.17 277.51-3.61 275.78-3.05 273.5-3.05ZM293.22-29.65L293.22 0 298.3 0 298.3-29.65 293.22-29.65ZM298.3-37.75L293.22-37.75 293.22-33.27 298.3-33.27 298.3-37.75ZM304.72-29.63L304.72 0 309.77 0 309.77-23.9 308.7-29.63 304.72-29.63ZM323.3-16.93L323.3 0 328.35 0 328.35-16.95Q328.35-23 326.21-26.46 324.07-29.93 318.92-29.93L318.92-29.93Q313.75-29.93 310.46-26.7 307.17-23.48 307.17-19.83L307.17-19.83 309.62-18.28Q309.62-21.78 311.8-24.08 313.97-26.38 317.1-26.38L317.1-26.38Q320.22-26.38 321.76-24.23 323.3-22.08 323.3-16.93L323.3-16.93ZM346.02 0.33L346.02 0.33Q348.77 0.33 351.27-0.3L351.27-0.3 351.27-3.73Q349.54-3.15 347.72-3.15L347.72-3.15Q345.67-3.15 344.54-4.03 343.42-4.9 343.42-7.63L343.42-7.63 343.42-26.08 353.22-26.08 353.22-29.63 343.42-29.63 343.42-36.33 338.34-36.33 338.34-29.63 331.42-29.63 331.42-26.08 338.34-26.08 338.34-6.45Q338.34-2.55 340.54-1.11 342.74 0.33 346.02 0.33ZM369.14 0.25L369.14 0.25 369.14-3.1Q365.34-3.1 363.22-5.88L363.22-5.88Q361.07-8.6 361.07-14.88L361.07-14.88Q361.07-21.5 363.29-24.05L363.29-24.05Q365.49-26.58 369.07-26.58L369.07-26.58Q372.74-26.58 374.79-24.18L374.79-24.18Q376.57-21.93 376.77-16.48L376.77-16.48 360.52-16.48 360.52-13.33 381.77-13.33Q381.87-14.08 381.87-14.95L381.87-14.95Q381.87-22.38 378.92-26.15L378.92-26.15Q375.94-29.93 369.07-29.93L369.07-29.93Q362.39-29.93 359.29-26.15L359.29-26.15Q356.17-22.4 356.17-14.88L356.17-14.88Q356.17-7.78 359.22-3.75L359.22-3.75Q362.24 0.25 369.14 0.25ZM369.14-3.1L369.14-3.1 369.14 0.25Q372.89 0.25 375.34-0.73L375.34-0.73Q377.79-1.7 379.34-3.85L379.34-3.85Q380.87-5.98 381.29-9.03L381.29-9.03 376.74-10.25Q376.32-8.05 375.47-6.3L375.47-6.3Q374.57-4.55 372.94-3.83L372.94-3.83Q371.32-3.1 369.14-3.1ZM386.94-29.63L386.94 0 391.99 0 391.99-23.9 390.91-29.63 386.94-29.63ZM405.51-16.93L405.51 0 410.56 0 410.56-16.95Q410.56-23 408.43-26.46 406.29-29.93 401.14-29.93L401.14-29.93Q395.96-29.93 392.68-26.7 389.39-23.48 389.39-19.83L389.39-19.83 391.84-18.28Q391.84-21.78 394.01-24.08 396.19-26.38 399.31-26.38L399.31-26.38Q402.44-26.38 403.98-24.23 405.51-22.08 405.51-16.93L405.51-16.93ZM425.51 0.28L425.51 0.28Q427.69 0.28 429.4-0.11 431.11-0.5 432.36-1.11 433.61-1.73 434.41-2.43 435.21-3.13 435.54-3.75L435.54-3.75 435.96 0 440.19 0 440.19-18.85Q440.19-22.85 438.75-25.28 437.31-27.7 434.56-28.8 431.81-29.9 427.86-29.9L427.86-29.9Q425.51-29.9 423.46-29.41 421.41-28.93 419.8-27.88 418.19-26.83 417.1-25.13 416.01-23.43 415.61-20.98L415.61-20.98 420.56-19.65Q420.94-22.13 421.92-23.61 422.91-25.1 424.44-25.78 425.96-26.45 427.89-26.45L427.89-26.45Q430.11-26.45 431.74-25.7 433.36-24.95 434.24-23.34 435.11-21.73 435.11-19.1L435.11-19.1 435.11-17.43 425.44-17.43Q423.11-17.43 421.24-17 419.36-16.57 418.05-15.59 416.74-14.6 416.04-12.91 415.34-11.23 415.34-8.68L415.34-8.68Q415.34-6.03 416.05-4.29 416.76-2.55 418.12-1.55 419.49-0.55 421.35-0.14 423.21 0.28 425.51 0.28ZM426.61-3.05L426.61-3.05Q425.34-3.05 424.21-3.31 423.09-3.58 422.24-4.2 421.39-4.83 420.92-5.95 420.46-7.08 420.46-8.88L420.46-8.88Q420.46-10.63 420.94-11.75 421.41-12.88 422.25-13.49 423.09-14.1 424.21-14.34 425.34-14.58 426.61-14.58L426.61-14.58 435.04-14.58 435.04-6.85Q434.61-5.93 433.49-5.05 432.36-4.17 430.62-3.61 428.89-3.05 426.61-3.05ZM445.61-29.63L445.61 0 450.66 0 450.66-23.9 449.58-29.63 445.61-29.63ZM464.18-16.93L464.18 0 469.23 0 469.23-16.95Q469.23-23 467.1-26.46 464.96-29.93 459.81-29.93L459.81-29.93Q454.63-29.93 451.35-26.7 448.06-23.48 448.06-19.83L448.06-19.83 450.51-18.28Q450.51-21.78 452.68-24.08 454.86-26.38 457.98-26.38L457.98-26.38Q461.11-26.38 462.65-24.23 464.18-22.08 464.18-16.93L464.18-16.93ZM486.43 0.25L486.43 0.25Q492.66 0.25 495.32-3.09 497.98-6.43 498.23-9.9L498.23-9.9 493.71-11.45Q493.61-8.18 491.72-5.74 489.83-3.3 486.43-3.3L486.43-3.3Q482.98-3.3 480.82-6 478.66-8.7 478.66-14.8L478.66-14.8Q478.66-21.3 480.79-23.83 482.93-26.35 486.43-26.35L486.43-26.35Q489.86-26.35 491.73-24.09 493.61-21.83 493.71-18.1L493.71-18.1 498.23-19.6Q497.98-23.5 495.33-26.7 492.68-29.9 486.43-29.9L486.43-29.9Q479.61-29.9 476.56-26.16 473.51-22.43 473.51-14.8L473.51-14.8Q473.51-7.53 476.56-3.64 479.61 0.25 486.43 0.25ZM515.53 0.25L515.53 0.25 515.53-3.1Q511.73-3.1 509.6-5.88L509.6-5.88Q507.45-8.6 507.45-14.88L507.45-14.88Q507.45-21.5 509.68-24.05L509.68-24.05Q511.88-26.58 515.45-26.58L515.45-26.58Q519.13-26.58 521.18-24.18L521.18-24.18Q522.95-21.93 523.15-16.48L523.15-16.48 506.9-16.48 506.9-13.33 528.15-13.33Q528.25-14.08 528.25-14.95L528.25-14.95Q528.25-22.38 525.3-26.15L525.3-26.15Q522.33-29.93 515.45-29.93L515.45-29.93Q508.78-29.93 505.68-26.15L505.68-26.15Q502.55-22.4 502.55-14.88L502.55-14.88Q502.55-7.78 505.6-3.75L505.6-3.75Q508.63 0.25 515.53 0.25ZM515.53-3.1L515.53-3.1 515.53 0.25Q519.28 0.25 521.73-0.73L521.73-0.73Q524.18-1.7 525.73-3.85L525.73-3.85Q527.25-5.98 527.68-9.03L527.68-9.03 523.13-10.25Q522.7-8.05 521.85-6.3L521.85-6.3Q520.95-4.55 519.33-3.83L519.33-3.83Q517.7-3.1 515.53-3.1ZM545.37-33.75L545.37 0 550.47 0 550.47-9.85 560.35-9.85Q565.95-9.85 567.88-13.26 569.82-16.68 569.82-21.83L569.82-21.83Q569.82-26.95 567.88-30.35 565.95-33.75 560.35-33.75L560.35-33.75 545.37-33.75ZM558.8-13.4L550.47-13.4 550.47-30.2 558.8-30.2Q562.1-30.2 563.42-28.04 564.75-25.88 564.75-21.8L564.75-21.8Q564.75-17.73 563.42-15.56 562.1-13.4 558.8-13.4L558.8-13.4ZM575.22-39.25L575.22 0 580.29 0 580.29-39.25 575.22-39.25ZM595.67 0.28L595.67 0.28Q597.84 0.28 599.55-0.11 601.27-0.5 602.52-1.11 603.77-1.73 604.57-2.43 605.37-3.13 605.69-3.75L605.69-3.75 606.12 0 610.34 0 610.34-18.85Q610.34-22.85 608.9-25.28 607.47-27.7 604.72-28.8 601.97-29.9 598.02-29.9L598.02-29.9Q595.67-29.9 593.62-29.41 591.57-28.93 589.95-27.88 588.34-26.83 587.25-25.13 586.17-23.43 585.77-20.98L585.77-20.98 590.72-19.65Q591.09-22.13 592.08-23.61 593.07-25.1 594.59-25.78 596.12-26.45 598.04-26.45L598.04-26.45Q600.27-26.45 601.89-25.7 603.52-24.95 604.39-23.34 605.27-21.73 605.27-19.1L605.27-19.1 605.27-17.43 595.59-17.43Q593.27-17.43 591.39-17 589.52-16.57 588.2-15.59 586.89-14.6 586.19-12.91 585.49-11.23 585.49-8.68L585.49-8.68Q585.49-6.03 586.2-4.29 586.92-2.55 588.28-1.55 589.64-0.55 591.5-0.14 593.37 0.28 595.67 0.28ZM596.77-3.05L596.77-3.05Q595.49-3.05 594.37-3.31 593.24-3.58 592.39-4.2 591.54-4.83 591.08-5.95 590.62-7.08 590.62-8.88L590.62-8.88Q590.62-10.63 591.09-11.75 591.57-12.88 592.4-13.49 593.24-14.1 594.37-14.34 595.49-14.58 596.77-14.58L596.77-14.58 605.19-14.58 605.19-6.85Q604.77-5.93 603.64-5.05 602.52-4.17 600.78-3.61 599.04-3.05 596.77-3.05ZM615.76-29.63L615.76 0 620.81 0 620.81-23.9 619.74-29.63 615.76-29.63ZM634.34-16.93L634.34 0 639.39 0 639.39-16.95Q639.39-23 637.25-26.46 635.11-29.93 629.96-29.93L629.96-29.93Q624.79-29.93 621.5-26.7 618.21-23.48 618.21-19.83L618.21-19.83 620.66-18.28Q620.66-21.78 622.84-24.08 625.01-26.38 628.14-26.38L628.14-26.38Q631.26-26.38 632.8-24.23 634.34-22.08 634.34-16.93L634.34-16.93ZM644.86-29.63L644.86 0 649.91 0 649.91-23.9 648.84-29.63 644.86-29.63ZM663.44-16.93L663.44 0 668.49 0 668.49-16.95Q668.49-23 666.35-26.46 664.21-29.93 659.06-29.93L659.06-29.93Q653.89-29.93 650.6-26.7 647.31-23.48 647.31-19.83L647.31-19.83 649.76-18.28Q649.76-21.78 651.94-24.08 654.11-26.38 657.24-26.38L657.24-26.38Q660.36-26.38 661.9-24.23 663.44-22.08 663.44-16.93L663.44-16.93ZM674.68-29.65L674.68 0 679.76 0 679.76-29.65 674.68-29.65ZM679.76-37.75L674.68-37.75 674.68-33.27 679.76-33.27 679.76-37.75ZM686.18-29.63L686.18 0 691.23 0 691.23-23.9 690.16-29.63 686.18-29.63ZM704.76-16.93L704.76 0 709.81 0 709.81-16.95Q709.81-23 707.67-26.46 705.53-29.93 700.38-29.93L700.38-29.93Q695.21-29.93 691.92-26.7 688.63-23.48 688.63-19.83L688.63-19.83 691.08-18.28Q691.08-21.78 693.26-24.08 695.43-26.38 698.56-26.38L698.56-26.38Q701.68-26.38 703.22-24.23 704.76-22.08 704.76-16.93L704.76-16.93ZM726.9 11.6L726.9 11.6Q730.75 11.6 733.4 10.49 736.05 9.38 737.77 6.64 739.48 3.9 739.48-0.85L739.48-0.85 739.48-29.63 735.7-29.63 734.4-23.58 734.4-0.38Q734.4 4.75 732.4 6.55 730.4 8.35 727.08 8.35L727.08 8.35Q725.05 8.35 723.49 7.69 721.93 7.03 721.04 5.61 720.15 4.2 719.98 1.85L719.98 1.85 715 1.85Q715.4 7.23 718.72 9.41 722.03 11.6 726.9 11.6ZM725.08 0.2L725.08 0.2Q729.93 0.2 733.28-2.2 736.63-4.6 736.63-7.3L736.63-7.3 734.4-10.03Q734.4-7.43 732.14-5.38 729.88-3.33 726.73-3.33L726.73-3.33Q723.38-3.33 721.43-5.76 719.48-8.2 719.48-14.85L719.48-14.85Q719.48-21.5 721.43-23.94 723.38-26.38 726.73-26.38L726.73-26.38Q729.88-26.38 732.14-24.34 734.4-22.3 734.4-19.73L734.4-19.73 736.58-22.28Q736.58-24.9 733.23-27.4 729.88-29.9 725.03-29.9L725.03-29.9Q719.7-29.9 717.04-26.18 714.38-22.45 714.38-14.88L714.38-14.88Q714.38-7.3 717.07-3.55 719.75 0.2 725.08 0.2Z" opacity="1" transform="matrix(1,0,0,1,0,0)" fill="#000000" class="wordmark-text-0" data-fill-palette-color="primary" id="text-0"></path></svg></g></svg></g><g transform="matrix(1,0,0,1,0,33.71331412882017)"><svg viewBox="0 0 395.52 16.855620634662323" height="16.855620634662323" width="395.52"><g transform="matrix(1,0,0,1,0,0)"><svg width="395.52" viewBox="2.5 -39.2 1276.53 53.800000000000004" height="16.855620634662323" data-palette-color="#958bbf"><path d="M28.5-7L29.45-7 29.45 1 28.5 1Q28.5 0.65 28.35 0.3 28.2-0.05 27.95-0.05L27.95-0.05 2.5-0.05 2.5-1Q2.85-1 3.23-1.15 3.6-1.3 3.6-1.55L3.6-1.55 3.6-36.05Q3.6-36.3 3.23-36.45 2.85-36.6 2.5-36.6L2.5-36.6 2.5-37.55 26.65-37.55Q26.9-37.55 27.05-37.9 27.2-38.25 27.2-38.6L27.2-38.6 28.15-38.6 28.15-30.6 27.2-30.6Q27.2-30.95 27.05-31.3 26.9-31.65 26.65-31.65L26.65-31.65 10.05-31.65 10.05-22.85 24.2-22.85Q24.45-22.85 24.6-23.2 24.75-23.55 24.75-23.9L24.75-23.9 25.7-23.9 25.7-15.9 24.75-15.9Q24.75-16.25 24.6-16.6 24.45-16.95 24.2-16.95L24.2-16.95 10.05-16.95 10.05-5.95 27.95-5.95Q28.2-5.95 28.35-6.3 28.5-6.65 28.5-7L28.5-7ZM57.38-23.85L58.33-23.85 58.33-16.5 57.38-16.5Q57.38-16.8 57.23-17.13 57.08-17.45 56.83-17.45L56.83-17.45 53.23-17.45 53.23-1.5Q53.23-1.25 53.58-1.1 53.93-0.95 54.23-0.95L54.23-0.95 54.23 0 46.48 0 46.48-0.95Q46.78-0.95 47.13-1.1 47.48-1.25 47.48-1.5L47.48-1.5 47.48-17.45 45.08-17.45Q44.83-17.45 44.68-17.13 44.53-16.8 44.53-16.5L44.53-16.5 43.58-16.5 43.58-23.85 44.53-23.85Q44.53-23.55 44.68-23.23 44.83-22.9 45.08-22.9L45.08-22.9 47.48-22.9 47.48-30.4Q47.48-33.75 49.58-35.83 51.68-37.9 55.28-38.05L55.28-38.05Q55.53-38.05 55.65-38.4 55.78-38.75 55.78-39.1L55.78-39.1 56.73-39.2 57.18-30.45 56.23-30.4Q56.23-30.8 56.05-31.18 55.88-31.55 55.58-31.55L55.58-31.55Q54.43-31.35 53.83-30.58 53.23-29.8 53.23-28.75L53.23-28.75 53.23-22.9 56.83-22.9Q57.08-22.9 57.23-23.23 57.38-23.55 57.38-23.85L57.38-23.85ZM86.5-23.85L87.45-23.85 87.45-16.5 86.5-16.5Q86.5-16.8 86.35-17.13 86.2-17.45 85.95-17.45L85.95-17.45 82.35-17.45 82.35-1.5Q82.35-1.25 82.7-1.1 83.05-0.95 83.35-0.95L83.35-0.95 83.35 0 75.6 0 75.6-0.95Q75.9-0.95 76.25-1.1 76.6-1.25 76.6-1.5L76.6-1.5 76.6-17.45 74.2-17.45Q73.95-17.45 73.8-17.13 73.65-16.8 73.65-16.5L73.65-16.5 72.7-16.5 72.7-23.85 73.65-23.85Q73.65-23.55 73.8-23.23 73.95-22.9 74.2-22.9L74.2-22.9 76.6-22.9 76.6-30.4Q76.6-33.75 78.7-35.83 80.8-37.9 84.4-38.05L84.4-38.05Q84.65-38.05 84.78-38.4 84.9-38.75 84.9-39.1L84.9-39.1 85.85-39.2 86.3-30.45 85.35-30.4Q85.35-30.8 85.18-31.18 85-31.55 84.7-31.55L84.7-31.55Q83.55-31.35 82.95-30.58 82.35-29.8 82.35-28.75L82.35-28.75 82.35-22.9 85.95-22.9Q86.2-22.9 86.35-23.23 86.5-23.55 86.5-23.85L86.5-23.85ZM107.93-27.2Q106.33-27.2 105.2-28.3 104.08-29.4 104.08-31.05L104.08-31.05Q104.08-32.6 105.2-33.73 106.33-34.85 107.93-34.85L107.93-34.85Q109.53-34.85 110.63-33.73 111.73-32.6 111.73-31.05L111.73-31.05Q111.73-29.4 110.63-28.3 109.53-27.2 107.93-27.2L107.93-27.2ZM104.68-21.5Q104.68-21.75 104.3-21.9 103.93-22.05 103.58-22.05L103.58-22.05 103.58-23 112.18-23 112.18-22.05Q111.83-22.05 111.45-21.9 111.08-21.75 111.08-21.5L111.08-21.5 111.08-1.5Q111.08-1.25 111.45-1.1 111.83-0.95 112.18-0.95L112.18-0.95 112.18 0 103.58 0 103.58-0.95Q103.93-0.95 104.3-1.1 104.68-1.25 104.68-1.5L104.68-1.5 104.68-21.5ZM140.75 1.05Q137.55 1.05 134.8-0.55 132.05-2.15 130.43-4.9 128.8-7.65 128.8-10.9L128.8-10.9Q128.8-14.75 130.43-17.68 132.05-20.6 134.8-22.18 137.55-23.75 140.85-23.75L140.85-23.75Q143.2-23.75 144.88-23.2 146.55-22.65 147.58-21.88 148.6-21.1 150.15-19.7L150.15-19.7Q150.25-19.6 150.4-19.6L150.4-19.6Q150.6-19.6 150.88-19.75 151.15-19.9 151.3-20.05L151.3-20.05 151.95-19.35 146.55-14.35 145.9-15.05Q146.15-15.25 146.33-15.63 146.5-16 146.35-16.2L146.35-16.2Q144.55-18.4 141.4-18.4L141.4-18.4Q138.55-18.4 136.63-16.5 134.7-14.6 134.7-11.55L134.7-11.55Q134.7-8.4 136.55-6.5 138.4-4.6 141.4-4.6L141.4-4.6Q142.9-4.6 143.85-4.98 144.8-5.35 146-6.4L146-6.4Q146.1-6.5 146.1-6.65L146.1-6.65Q146.1-6.95 145.75-7.3L145.75-7.3 146.35-8.05 151.75-3.55 151.15-2.85Q150.35-3.3 150.05-3L150.05-3Q148.2-0.95 146.18 0.05 144.15 1.05 140.75 1.05L140.75 1.05ZM171.93-27.2Q170.33-27.2 169.2-28.3 168.08-29.4 168.08-31.05L168.08-31.05Q168.08-32.6 169.2-33.73 170.33-34.85 171.93-34.85L171.93-34.85Q173.53-34.85 174.63-33.73 175.73-32.6 175.73-31.05L175.73-31.05Q175.73-29.4 174.63-28.3 173.53-27.2 171.93-27.2L171.93-27.2ZM168.68-21.5Q168.68-21.75 168.3-21.9 167.93-22.05 167.58-22.05L167.58-22.05 167.58-23 176.18-23 176.18-22.05Q175.83-22.05 175.45-21.9 175.08-21.75 175.08-21.5L175.08-21.5 175.08-1.5Q175.08-1.25 175.45-1.1 175.83-0.95 176.18-0.95L176.18-0.95 176.18 0 167.58 0 167.58-0.95Q167.93-0.95 168.3-1.1 168.68-1.25 168.68-1.5L168.68-1.5 168.68-21.5ZM205-24.05Q208.85-24.05 211.65-22.38 214.45-20.7 215.9-17.85 217.35-15 217.35-11.55L217.35-11.55Q217.35-10.5 217.2-9.45L217.2-9.45 198.9-9.45Q199.1-7.05 201-5.7 202.9-4.35 205.55-4.35L205.55-4.35Q207.35-4.35 208.58-4.85 209.8-5.35 210.75-6.35L210.75-6.35Q210.85-6.55 210.85-6.6L210.85-6.6Q210.85-6.8 210.7-7.03 210.55-7.25 210.4-7.35L210.4-7.35 211-8.1 216.55-3.75 216-3Q215.25-3.45 214.95-3.1L214.95-3.1Q211.45 1.1 205.55 1.1L205.55 1.1Q201.75 1.1 198.85-0.58 195.95-2.25 194.38-5.08 192.8-7.9 192.8-11.35L192.8-11.35Q192.8-15 194.35-17.9 195.9-20.8 198.68-22.43 201.45-24.05 205-24.05L205-24.05ZM198.95-14.1L211.35-14.1Q211.15-16.15 209.28-17.57 207.4-19 205.05-19L205.05-19Q202.7-19 201-17.57 199.3-16.15 198.95-14.1L198.95-14.1ZM257.83-13.45L257.83-1.5Q257.83-1.25 258.2-1.1 258.58-0.95 258.98-0.95L258.98-0.95 258.98 0 250.18 0 250.18-0.95Q250.58-0.95 250.95-1.1 251.33-1.25 251.33-1.5L251.33-1.5 251.33-11.9Q251.33-14.45 250.08-16.28 248.83-18.1 246.33-18.1L246.33-18.1Q243.78-18.1 242.2-16.4 240.63-14.7 240.63-11.5L240.63-11.5 240.63-1.5Q240.63-1.25 241-1.1 241.38-0.95 241.78-0.95L241.78-0.95 241.78 0 233.03 0 233.03-0.95Q233.43-0.95 233.8-1.1 234.18-1.25 234.18-1.5L234.18-1.5 234.18-21.5Q234.18-21.75 233.8-21.9 233.43-22.05 233.08-22.05L233.08-22.05 233.08-23 240.63-23 240.63-20.95Q241.93-22.15 243.7-22.83 245.48-23.5 247.33-23.5L247.33-23.5Q250.53-23.5 252.9-22.15 255.28-20.8 256.55-18.53 257.83-16.25 257.83-13.45L257.83-13.45ZM286.85 1.05Q283.65 1.05 280.9-0.55 278.15-2.15 276.53-4.9 274.9-7.65 274.9-10.9L274.9-10.9Q274.9-14.75 276.53-17.68 278.15-20.6 280.9-22.18 283.65-23.75 286.95-23.75L286.95-23.75Q289.3-23.75 290.98-23.2 292.65-22.65 293.68-21.88 294.7-21.1 296.25-19.7L296.25-19.7Q296.35-19.6 296.5-19.6L296.5-19.6Q296.7-19.6 296.98-19.75 297.25-19.9 297.4-20.05L297.4-20.05 298.05-19.35 292.65-14.35 292-15.05Q292.25-15.25 292.43-15.63 292.6-16 292.45-16.2L292.45-16.2Q290.65-18.4 287.5-18.4L287.5-18.4Q284.65-18.4 282.73-16.5 280.8-14.6 280.8-11.55L280.8-11.55Q280.8-8.4 282.65-6.5 284.5-4.6 287.5-4.6L287.5-4.6Q289-4.6 289.95-4.98 290.9-5.35 292.1-6.4L292.1-6.4Q292.2-6.5 292.2-6.65L292.2-6.65Q292.2-6.95 291.85-7.3L291.85-7.3 292.45-8.05 297.85-3.55 297.25-2.85Q296.45-3.3 296.15-3L296.15-3Q294.3-0.95 292.28 0.05 290.25 1.05 286.85 1.05L286.85 1.05ZM340.28-23L340.28-22.05Q339.23-22.05 338.98-21.65L338.98-21.65 321.48 12.8Q321.43 12.85 321.43 12.95L321.43 12.95Q321.43 13.25 321.78 13.45 322.13 13.65 322.68 13.65L322.68 13.65 322.68 14.6 313.28 14.6 313.28 13.65Q314.33 13.65 314.58 13.25L314.58 13.25 322.73-2.8 312.48-21.7Q312.28-22.05 311.18-22.05L311.18-22.05 311.18-23 320.43-23 320.43-22.05Q319.83-22.05 319.7-21.8 319.58-21.55 319.78-21.25L319.78-21.25 326.13-9.5 332.08-21.2Q332.13-21.25 332.13-21.35L332.13-21.35Q332.13-21.65 331.78-21.85 331.43-22.05 330.88-22.05L330.88-22.05 330.88-23 340.28-23ZM395.13-37.5Q400.73-37.5 404.88-35.23 409.03-32.95 411.3-28.65 413.58-24.35 413.58-18.45L413.58-18.45Q413.58-12.8 411.15-8.63 408.73-4.45 404.4-2.23 400.08 0 394.53 0L394.53 0 381.03 0 381.03-0.95Q381.38-0.95 381.75-1.1 382.13-1.25 382.13-1.5L382.13-1.5 382.13-36Q382.13-36.25 381.75-36.4 381.38-36.55 381.03-36.55L381.03-36.55 381.03-37.5 395.13-37.5ZM388.68-5.9L393.58-5.9Q397.93-5.9 401-7.48 404.08-9.05 405.65-11.9 407.23-14.75 407.23-18.55L407.23-18.55Q407.23-24.5 404.03-28.05 400.83-31.6 394.18-31.6L394.18-31.6 388.68-31.6 388.68-5.9ZM440.9-24.05Q444.75-24.05 447.55-22.38 450.35-20.7 451.8-17.85 453.25-15 453.25-11.55L453.25-11.55Q453.25-10.5 453.1-9.45L453.1-9.45 434.8-9.45Q435-7.05 436.9-5.7 438.8-4.35 441.45-4.35L441.45-4.35Q443.25-4.35 444.48-4.85 445.7-5.35 446.65-6.35L446.65-6.35Q446.75-6.55 446.75-6.6L446.75-6.6Q446.75-6.8 446.6-7.03 446.45-7.25 446.3-7.35L446.3-7.35 446.9-8.1 452.45-3.75 451.9-3Q451.15-3.45 450.85-3.1L450.85-3.1Q447.35 1.1 441.45 1.1L441.45 1.1Q437.65 1.1 434.75-0.58 431.85-2.25 430.28-5.08 428.7-7.9 428.7-11.35L428.7-11.35Q428.7-15 430.25-17.9 431.8-20.8 434.58-22.43 437.35-24.05 440.9-24.05L440.9-24.05ZM434.85-14.1L447.25-14.1Q447.05-16.15 445.18-17.57 443.3-19 440.95-19L440.95-19Q438.6-19 436.9-17.57 435.2-16.15 434.85-14.1L434.85-14.1ZM481.68-23.85L482.63-23.85 482.63-16.5 481.68-16.5Q481.68-16.8 481.53-17.13 481.38-17.45 481.13-17.45L481.13-17.45 477.53-17.45 477.53-1.5Q477.53-1.25 477.88-1.1 478.23-0.95 478.53-0.95L478.53-0.95 478.53 0 470.78 0 470.78-0.95Q471.08-0.95 471.43-1.1 471.78-1.25 471.78-1.5L471.78-1.5 471.78-17.45 469.38-17.45Q469.13-17.45 468.98-17.13 468.83-16.8 468.83-16.5L468.83-16.5 467.88-16.5 467.88-23.85 468.83-23.85Q468.83-23.55 468.98-23.23 469.13-22.9 469.38-22.9L469.38-22.9 471.78-22.9 471.78-30.4Q471.78-33.75 473.88-35.83 475.98-37.9 479.58-38.05L479.58-38.05Q479.83-38.05 479.95-38.4 480.08-38.75 480.08-39.1L480.08-39.1 481.03-39.2 481.48-30.45 480.53-30.4Q480.53-30.8 480.35-31.18 480.18-31.55 479.88-31.55L479.88-31.55Q478.73-31.35 478.13-30.58 477.53-29.8 477.53-28.75L477.53-28.75 477.53-22.9 481.13-22.9Q481.38-22.9 481.53-23.23 481.68-23.55 481.68-23.85L481.68-23.85ZM503.1-27.2Q501.5-27.2 500.38-28.3 499.25-29.4 499.25-31.05L499.25-31.05Q499.25-32.6 500.38-33.73 501.5-34.85 503.1-34.85L503.1-34.85Q504.7-34.85 505.8-33.73 506.9-32.6 506.9-31.05L506.9-31.05Q506.9-29.4 505.8-28.3 504.7-27.2 503.1-27.2L503.1-27.2ZM499.85-21.5Q499.85-21.75 499.48-21.9 499.1-22.05 498.75-22.05L498.75-22.05 498.75-23 507.35-23 507.35-22.05Q507-22.05 506.63-21.9 506.25-21.75 506.25-21.5L506.25-21.5 506.25-1.5Q506.25-1.25 506.63-1.1 507-0.95 507.35-0.95L507.35-0.95 507.35 0 498.75 0 498.75-0.95Q499.1-0.95 499.48-1.1 499.85-1.25 499.85-1.5L499.85-1.5 499.85-21.5ZM549.33-13.45L549.33-1.5Q549.33-1.25 549.7-1.1 550.08-0.95 550.48-0.95L550.48-0.95 550.48 0 541.68 0 541.68-0.95Q542.08-0.95 542.45-1.1 542.83-1.25 542.83-1.5L542.83-1.5 542.83-11.9Q542.83-14.45 541.58-16.28 540.33-18.1 537.83-18.1L537.83-18.1Q535.28-18.1 533.7-16.4 532.13-14.7 532.13-11.5L532.13-11.5 532.13-1.5Q532.13-1.25 532.5-1.1 532.88-0.95 533.28-0.95L533.28-0.95 533.28 0 524.53 0 524.53-0.95Q524.93-0.95 525.3-1.1 525.68-1.25 525.68-1.5L525.68-1.5 525.68-21.5Q525.68-21.75 525.3-21.9 524.93-22.05 524.58-22.05L524.58-22.05 524.58-23 532.13-23 532.13-20.95Q533.43-22.15 535.2-22.83 536.98-23.5 538.83-23.5L538.83-23.5Q542.03-23.5 544.4-22.15 546.78-20.8 548.05-18.53 549.33-16.25 549.33-13.45L549.33-13.45ZM578.6-24.05Q582.45-24.05 585.25-22.38 588.05-20.7 589.5-17.85 590.95-15 590.95-11.55L590.95-11.55Q590.95-10.5 590.8-9.45L590.8-9.45 572.5-9.45Q572.7-7.05 574.6-5.7 576.5-4.35 579.15-4.35L579.15-4.35Q580.95-4.35 582.18-4.85 583.4-5.35 584.35-6.35L584.35-6.35Q584.45-6.55 584.45-6.6L584.45-6.6Q584.45-6.8 584.3-7.03 584.15-7.25 584-7.35L584-7.35 584.6-8.1 590.15-3.75 589.6-3Q588.85-3.45 588.55-3.1L588.55-3.1Q585.05 1.1 579.15 1.1L579.15 1.1Q575.35 1.1 572.45-0.58 569.55-2.25 567.98-5.08 566.4-7.9 566.4-11.35L566.4-11.35Q566.4-15 567.95-17.9 569.5-20.8 572.28-22.43 575.05-24.05 578.6-24.05L578.6-24.05ZM572.55-14.1L584.95-14.1Q584.75-16.15 582.88-17.57 581-19 578.65-19L578.65-19Q576.3-19 574.6-17.57 572.9-16.15 572.55-14.1L572.55-14.1ZM632.08-36L632.08-1.5Q632.08-1.25 632.45-1.1 632.83-0.95 633.18-0.95L633.18-0.95 633.18 0 626.03 0 626.03-1.75Q623.03 0.7 618.88 0.7L618.88 0.7Q615.18 0.7 612.28-0.8 609.38-2.3 607.73-5.05 606.08-7.8 606.08-11.4L606.08-11.4Q606.08-15.05 607.75-17.88 609.43-20.7 612.35-22.28 615.28-23.85 618.88-23.85L618.88-23.85Q623.03-23.85 626.03-21.5L626.03-21.5 626.03-36Q626.03-36.25 625.68-36.4 625.33-36.55 624.98-36.55L624.98-36.55 624.98-37.5 633.13-37.5 633.13-36.55Q632.78-36.55 632.43-36.4 632.08-36.25 632.08-36L632.08-36ZM619.18-4.65Q621.13-4.65 622.75-5.55 624.38-6.45 625.3-7.98 626.23-9.5 626.23-11.2L626.23-11.2Q626.23-14.25 624.25-16.23 622.28-18.2 619.18-18.2L619.18-18.2Q616.08-18.2 614.1-16.28 612.13-14.35 612.13-11.3L612.13-11.3Q612.13-8.25 614.15-6.45 616.18-4.65 619.18-4.65L619.18-4.65ZM650.05-3.75Q650.05-5.5 651.35-6.73 652.65-7.95 654.5-7.95L654.5-7.95Q656.65-7.95 657.93-6.55 659.2-5.15 659.2-2.3L659.2-2.3Q659.2 2.05 656.63 3.85 654.05 5.65 650.3 5.65L650.3 5.65 650.3 4.35Q652.45 4 654.03 2.98 655.6 1.95 655.6 0.45L655.6 0.45Q655.15 0.55 654.35 0.55L654.35 0.55Q652.5 0.55 651.28-0.68 650.05-1.9 650.05-3.75L650.05-3.75ZM723 0.5Q717.65 0.5 713.15-2.02 708.65-4.55 706.05-9.03 703.45-13.5 703.45-19L703.45-19Q703.45-24.8 706.05-29.25 708.65-33.7 713.05-36.13 717.45-38.55 722.7-38.55L722.7-38.55Q727.75-38.55 731.23-36.77 734.7-35 737.8-31.8L737.8-31.8Q737.9-31.7 738.1-31.7L738.1-31.7Q738.4-31.7 739.15-32.15L739.15-32.15 739.75-31.4 732.85-25.95 732.25-26.7Q732.55-26.9 732.73-27.23 732.9-27.55 732.7-27.7L732.7-27.7Q730.6-29.75 728.33-30.83 726.05-31.9 722.8-31.9L722.8-31.9Q719.4-31.9 716.55-30.23 713.7-28.55 712.05-25.6 710.4-22.65 710.4-19L710.4-19Q710.4-15.5 712.15-12.63 713.9-9.75 716.8-8.1 719.7-6.45 723-6.45L723-6.45Q726.1-6.45 728.3-7.53 730.5-8.6 732.45-10.75L732.45-10.75 732.55-10.95Q732.55-11.2 732.33-11.53 732.1-11.85 731.85-12L731.85-12 732.5-12.7 739.95-6.45 739.35-5.7Q739.05-5.95 738.6-6.15 738.15-6.35 738-6.15L738-6.15Q734.85-2.75 731.4-1.13 727.95 0.5 723 0.5L723 0.5ZM766.33 0.6Q762.63 0.6 759.8-0.98 756.98-2.55 755.4-5.3 753.83-8.05 753.83-11.5L753.83-11.5Q753.83-14.9 755.4-17.7 756.98-20.5 759.83-22.13 762.68-23.75 766.33-23.75L766.33-23.75Q769.83-23.75 772.68-22.18 775.53-20.6 777.18-17.82 778.83-15.05 778.83-11.5L778.83-11.5Q778.83-8.4 777.35-5.63 775.88-2.85 773.03-1.13 770.18 0.6 766.33 0.6L766.33 0.6ZM766.33-5.15Q769.28-5.15 771.1-6.88 772.93-8.6 772.93-11.35L772.93-11.35Q772.93-14.2 771.1-16.05 769.28-17.9 766.33-17.9L766.33-17.9Q763.58-17.9 761.73-16.07 759.88-14.25 759.88-11.5L759.88-11.5Q759.88-8.6 761.73-6.88 763.58-5.15 766.33-5.15L766.33-5.15ZM831.9-13.45L831.9-1.5Q831.9-1.25 832.28-1.1 832.65-0.95 833.05-0.95L833.05-0.95 833.05 0 824.25 0 824.25-0.95Q824.65-0.95 825.03-1.1 825.4-1.25 825.4-1.5L825.4-1.5 825.4-11.9Q825.4-18.1 821.3-18.1L821.3-18.1Q819.3-18.1 818.2-16.45 817.1-14.8 817.1-11.5L817.1-11.5 817.1-1.5Q817.1-1.25 817.48-1.1 817.85-0.95 818.25-0.95L818.25-0.95 818.25 0 809.5 0 809.5-0.95Q809.9-0.95 810.28-1.1 810.65-1.25 810.65-1.5L810.65-1.5 810.65-11.9Q810.65-14.65 809.8-16.38 808.95-18.1 806.65-18.1L806.65-18.1Q804.85-18.1 803.78-16.78 802.7-15.45 802.5-12.8L802.5-12.8 802.5-1.5Q802.5-1.25 802.9-1.1 803.3-0.95 803.65-0.95L803.65-0.95 803.65 0 794.75 0 794.75-0.95Q795.1-0.95 795.5-1.1 795.9-1.25 795.9-1.5L795.9-1.5 795.9-21.5Q795.9-21.75 795.53-21.9 795.15-22.05 794.8-22.05L794.8-22.05 794.8-23 802.5-23 802.5-21.65Q804.5-23.5 807.6-23.5L807.6-23.5Q810.4-23.5 812.43-22.43 814.45-21.35 815.6-19.45L815.6-19.45Q816.5-21.3 818.38-22.4 820.25-23.5 822.6-23.5L822.6-23.5Q827.3-23.5 829.6-20.7 831.9-17.9 831.9-13.45L831.9-13.45ZM862.28-23.85L863.23-23.85 863.23-16.5 862.28-16.5Q862.28-16.8 862.13-17.13 861.98-17.45 861.73-17.45L861.73-17.45 858.13-17.45 858.13-1.5Q858.13-1.25 858.48-1.1 858.83-0.95 859.13-0.95L859.13-0.95 859.13 0 851.38 0 851.38-0.95Q851.68-0.95 852.03-1.1 852.38-1.25 852.38-1.5L852.38-1.5 852.38-17.45 849.98-17.45Q849.73-17.45 849.58-17.13 849.43-16.8 849.43-16.5L849.43-16.5 848.48-16.5 848.48-23.85 849.43-23.85Q849.43-23.55 849.58-23.23 849.73-22.9 849.98-22.9L849.98-22.9 852.38-22.9 852.38-30.4Q852.38-33.75 854.48-35.83 856.58-37.9 860.18-38.05L860.18-38.05Q860.43-38.05 860.55-38.4 860.68-38.75 860.68-39.1L860.68-39.1 861.63-39.2 862.08-30.45 861.13-30.4Q861.13-30.8 860.95-31.18 860.78-31.55 860.48-31.55L860.48-31.55Q859.33-31.35 858.73-30.58 858.13-29.8 858.13-28.75L858.13-28.75 858.13-22.9 861.73-22.9Q861.98-22.9 862.13-23.23 862.28-23.55 862.28-23.85L862.28-23.85ZM890.61 0.6Q886.91 0.6 884.08-0.98 881.26-2.55 879.68-5.3 878.11-8.05 878.11-11.5L878.11-11.5Q878.11-14.9 879.68-17.7 881.26-20.5 884.11-22.13 886.96-23.75 890.61-23.75L890.61-23.75Q894.11-23.75 896.96-22.18 899.81-20.6 901.46-17.82 903.11-15.05 903.11-11.5L903.11-11.5Q903.11-8.4 901.63-5.63 900.16-2.85 897.31-1.13 894.46 0.6 890.61 0.6L890.61 0.6ZM890.61-5.15Q893.56-5.15 895.38-6.88 897.21-8.6 897.21-11.35L897.21-11.35Q897.21-14.2 895.38-16.05 893.56-17.9 890.61-17.9L890.61-17.9Q887.86-17.9 886.01-16.07 884.16-14.25 884.16-11.5L884.16-11.5Q884.16-8.6 886.01-6.88 887.86-5.15 890.61-5.15L890.61-5.15ZM933.48-24.5L934.43-24.5 934.43-16.45 933.48-16.45Q933.48-16.8 933.33-17.25 933.18-17.7 932.93-17.75L932.93-17.75 932.58-17.75Q931.03-17.75 929.46-16.88 927.88-16 926.86-14.58 925.83-13.15 925.83-11.55L925.83-11.55 925.83-1.5Q925.83-1.25 926.21-1.1 926.58-0.95 926.93-0.95L926.93-0.95 926.93 0 918.53 0 918.53-0.95Q918.88-0.95 919.26-1.1 919.63-1.25 919.63-1.5L919.63-1.5 919.63-21.5Q919.63-21.75 919.26-21.9 918.88-22.05 918.53-22.05L918.53-22.05 918.53-23 925.83-23 925.83-20.85Q927.18-22.1 929.08-22.85 930.98-23.6 932.88-23.6L932.88-23.6 932.93-23.6 932.98-23.6Q933.23-23.6 933.36-23.9 933.48-24.2 933.48-24.5L933.48-24.5ZM961.81-24L962.76-24 962.76-16.4 961.81-16.4Q961.81-16.75 961.66-17.07 961.51-17.4 961.26-17.4L961.26-17.4 958.01-17.4 958.01-1.5Q958.01-1.25 958.36-1.1 958.71-0.95 959.06-0.95L959.06-0.95 959.06 0 950.91 0 950.91-0.95Q951.26-0.95 951.61-1.1 951.96-1.25 951.96-1.5L951.96-1.5 951.96-17.4 949.56-17.4Q949.31-17.4 949.16-17.07 949.01-16.75 949.01-16.4L949.01-16.4 948.06-16.4 948.06-24 949.01-24Q949.01-23.65 949.16-23.33 949.31-23 949.56-23L949.56-23 951.96-23 951.96-28.85Q951.96-29.1 951.61-29.25 951.26-29.4 950.91-29.4L950.91-29.4 950.91-30.35 959.06-30.35 959.06-29.4Q958.71-29.4 958.36-29.25 958.01-29.1 958.01-28.85L958.01-28.85 958.01-23 961.26-23Q961.51-23 961.66-23.33 961.81-23.65 961.81-24L961.81-24ZM1024.16-16.3L1033.21-1.3Q1033.41-0.95 1034.56-0.95L1034.56-0.95 1034.56 0 1024.41 0 1024.41-0.95Q1025.11-0.95 1025.36-1.2 1025.61-1.45 1025.41-1.7L1025.41-1.7 1017.01-15.85 1011.86-15.85 1011.86-1.5Q1011.86-1.25 1012.26-1.1 1012.66-0.95 1013.01-0.95L1013.01-0.95 1013.01 0 1004.01 0 1004.01-0.95Q1004.36-0.95 1004.76-1.1 1005.16-1.25 1005.16-1.5L1005.16-1.5 1005.16-36Q1005.16-36.25 1004.78-36.4 1004.41-36.55 1004.06-36.55L1004.06-36.55 1004.06-37.5 1019.31-37.5Q1025.91-37.5 1029.28-34.52 1032.66-31.55 1032.66-26.85L1032.66-26.85Q1032.66-22.5 1030.28-19.85 1027.91-17.2 1024.16-16.3L1024.16-16.3ZM1020.21-31.7L1011.86-31.7 1011.86-21.9 1020.06-21.9Q1023.16-21.9 1024.71-23.35 1026.26-24.8 1026.26-26.85L1026.26-26.85Q1026.26-28.85 1024.51-30.28 1022.76-31.7 1020.21-31.7L1020.21-31.7ZM1061.38-24.05Q1065.23-24.05 1068.03-22.38 1070.83-20.7 1072.28-17.85 1073.73-15 1073.73-11.55L1073.73-11.55Q1073.73-10.5 1073.58-9.45L1073.58-9.45 1055.28-9.45Q1055.48-7.05 1057.38-5.7 1059.28-4.35 1061.93-4.35L1061.93-4.35Q1063.73-4.35 1064.96-4.85 1066.18-5.35 1067.13-6.35L1067.13-6.35Q1067.23-6.55 1067.23-6.6L1067.23-6.6Q1067.23-6.8 1067.08-7.03 1066.93-7.25 1066.78-7.35L1066.78-7.35 1067.38-8.1 1072.93-3.75 1072.38-3Q1071.63-3.45 1071.33-3.1L1071.33-3.1Q1067.83 1.1 1061.93 1.1L1061.93 1.1Q1058.13 1.1 1055.23-0.58 1052.33-2.25 1050.76-5.08 1049.18-7.9 1049.18-11.35L1049.18-11.35Q1049.18-15 1050.73-17.9 1052.28-20.8 1055.06-22.43 1057.83-24.05 1061.38-24.05L1061.38-24.05ZM1055.33-14.1L1067.73-14.1Q1067.53-16.15 1065.66-17.57 1063.78-19 1061.43-19L1061.43-19Q1059.08-19 1057.38-17.57 1055.68-16.15 1055.33-14.1L1055.33-14.1ZM1102.16-23.85L1103.11-23.85 1103.11-16.5 1102.16-16.5Q1102.16-16.8 1102.01-17.13 1101.86-17.45 1101.61-17.45L1101.61-17.45 1098.01-17.45 1098.01-1.5Q1098.01-1.25 1098.36-1.1 1098.71-0.95 1099.01-0.95L1099.01-0.95 1099.01 0 1091.26 0 1091.26-0.95Q1091.56-0.95 1091.91-1.1 1092.26-1.25 1092.26-1.5L1092.26-1.5 1092.26-17.45 1089.86-17.45Q1089.61-17.45 1089.46-17.13 1089.31-16.8 1089.31-16.5L1089.31-16.5 1088.36-16.5 1088.36-23.85 1089.31-23.85Q1089.31-23.55 1089.46-23.23 1089.61-22.9 1089.86-22.9L1089.86-22.9 1092.26-22.9 1092.26-30.4Q1092.26-33.75 1094.36-35.83 1096.46-37.9 1100.06-38.05L1100.06-38.05Q1100.31-38.05 1100.43-38.4 1100.56-38.75 1100.56-39.1L1100.56-39.1 1101.51-39.2 1101.96-30.45 1101.01-30.4Q1101.01-30.8 1100.83-31.18 1100.66-31.55 1100.36-31.55L1100.36-31.55Q1099.21-31.35 1098.61-30.58 1098.01-29.8 1098.01-28.75L1098.01-28.75 1098.01-22.9 1101.61-22.9Q1101.86-22.9 1102.01-23.23 1102.16-23.55 1102.16-23.85L1102.16-23.85ZM1123.58-27.2Q1121.98-27.2 1120.86-28.3 1119.73-29.4 1119.73-31.05L1119.73-31.05Q1119.73-32.6 1120.86-33.73 1121.98-34.85 1123.58-34.85L1123.58-34.85Q1125.18-34.85 1126.28-33.73 1127.38-32.6 1127.38-31.05L1127.38-31.05Q1127.38-29.4 1126.28-28.3 1125.18-27.2 1123.58-27.2L1123.58-27.2ZM1120.33-21.5Q1120.33-21.75 1119.96-21.9 1119.58-22.05 1119.23-22.05L1119.23-22.05 1119.23-23 1127.83-23 1127.83-22.05Q1127.48-22.05 1127.11-21.9 1126.73-21.75 1126.73-21.5L1126.73-21.5 1126.73-1.5Q1126.73-1.25 1127.11-1.1 1127.48-0.95 1127.83-0.95L1127.83-0.95 1127.83 0 1119.23 0 1119.23-0.95Q1119.58-0.95 1119.96-1.1 1120.33-1.25 1120.33-1.5L1120.33-1.5 1120.33-21.5ZM1169.81-13.45L1169.81-1.5Q1169.81-1.25 1170.18-1.1 1170.56-0.95 1170.96-0.95L1170.96-0.95 1170.96 0 1162.16 0 1162.16-0.95Q1162.56-0.95 1162.93-1.1 1163.31-1.25 1163.31-1.5L1163.31-1.5 1163.31-11.9Q1163.31-14.45 1162.06-16.28 1160.81-18.1 1158.31-18.1L1158.31-18.1Q1155.76-18.1 1154.18-16.4 1152.61-14.7 1152.61-11.5L1152.61-11.5 1152.61-1.5Q1152.61-1.25 1152.98-1.1 1153.36-0.95 1153.76-0.95L1153.76-0.95 1153.76 0 1145.01 0 1145.01-0.95Q1145.41-0.95 1145.78-1.1 1146.16-1.25 1146.16-1.5L1146.16-1.5 1146.16-21.5Q1146.16-21.75 1145.78-21.9 1145.41-22.05 1145.06-22.05L1145.06-22.05 1145.06-23 1152.61-23 1152.61-20.95Q1153.91-22.15 1155.68-22.83 1157.46-23.5 1159.31-23.5L1159.31-23.5Q1162.51-23.5 1164.88-22.15 1167.26-20.8 1168.53-18.53 1169.81-16.25 1169.81-13.45L1169.81-13.45ZM1199.08-24.05Q1202.93-24.05 1205.73-22.38 1208.53-20.7 1209.98-17.85 1211.43-15 1211.43-11.55L1211.43-11.55Q1211.43-10.5 1211.28-9.45L1211.28-9.45 1192.98-9.45Q1193.18-7.05 1195.08-5.7 1196.98-4.35 1199.63-4.35L1199.63-4.35Q1201.43-4.35 1202.66-4.85 1203.88-5.35 1204.83-6.35L1204.83-6.35Q1204.93-6.55 1204.93-6.6L1204.93-6.6Q1204.93-6.8 1204.78-7.03 1204.63-7.25 1204.48-7.35L1204.48-7.35 1205.08-8.1 1210.63-3.75 1210.08-3Q1209.33-3.45 1209.03-3.1L1209.03-3.1Q1205.53 1.1 1199.63 1.1L1199.63 1.1Q1195.83 1.1 1192.93-0.58 1190.03-2.25 1188.46-5.08 1186.88-7.9 1186.88-11.35L1186.88-11.35Q1186.88-15 1188.43-17.9 1189.98-20.8 1192.76-22.43 1195.53-24.05 1199.08-24.05L1199.08-24.05ZM1193.03-14.1L1205.43-14.1Q1205.23-16.15 1203.36-17.57 1201.48-19 1199.13-19L1199.13-19Q1196.78-19 1195.08-17.57 1193.38-16.15 1193.03-14.1L1193.03-14.1ZM1252.56-36L1252.56-1.5Q1252.56-1.25 1252.93-1.1 1253.31-0.95 1253.66-0.95L1253.66-0.95 1253.66 0 1246.51 0 1246.51-1.75Q1243.51 0.7 1239.36 0.7L1239.36 0.7Q1235.66 0.7 1232.76-0.8 1229.86-2.3 1228.21-5.05 1226.56-7.8 1226.56-11.4L1226.56-11.4Q1226.56-15.05 1228.23-17.88 1229.91-20.7 1232.83-22.28 1235.76-23.85 1239.36-23.85L1239.36-23.85Q1243.51-23.85 1246.51-21.5L1246.51-21.5 1246.51-36Q1246.51-36.25 1246.16-36.4 1245.81-36.55 1245.46-36.55L1245.46-36.55 1245.46-37.5 1253.61-37.5 1253.61-36.55Q1253.26-36.55 1252.91-36.4 1252.56-36.25 1252.56-36L1252.56-36ZM1239.66-4.65Q1241.61-4.65 1243.23-5.55 1244.86-6.45 1245.78-7.98 1246.71-9.5 1246.71-11.2L1246.71-11.2Q1246.71-14.25 1244.73-16.23 1242.76-18.2 1239.66-18.2L1239.66-18.2Q1236.56-18.2 1234.58-16.28 1232.61-14.35 1232.61-11.3L1232.61-11.3Q1232.61-8.25 1234.63-6.45 1236.66-4.65 1239.66-4.65L1239.66-4.65ZM1274.83 0.55Q1272.98 0.55 1271.76-0.68 1270.53-1.9 1270.53-3.75L1270.53-3.75Q1270.53-5.5 1271.78-6.73 1273.03-7.95 1274.83-7.95L1274.83-7.95Q1276.58-7.95 1277.81-6.73 1279.03-5.5 1279.03-3.75L1279.03-3.75Q1279.03-1.9 1277.81-0.68 1276.58 0.55 1274.83 0.55L1274.83 0.55Z" opacity="1" transform="matrix(1,0,0,1,0,0)" fill="#000000" class="slogan-text-1" data-fill-palette-color="secondary" id="text-1"></path></svg></g></svg></g></svg></g></svg></g><g transform="matrix(1,0,0,1,151.779402714439,0)"><svg viewBox="0 0 93.93879457112195 69.88626784313281" height="69.88626784313281" width="93.93879457112195"><g><svg xmlns="http://www.w3.org/2000/svg" xmlns:xlink="http://www.w3.org/1999/xlink" version="1.1" x="8" y="0" viewBox="3.3869999999999885 7.685 83.22800000000001 74.62899999999999" enable-background="new 0 0 90 90" xml:space="preserve" height="69.88626784313281" width="77.93879457112195" class="icon-icon-0" data-fill-palette-color="accent" id="icon-0"><path fill="#000000" d="M45.442 44.321V54.375L47.08 53.184V44.323A0.59 0.59 0 0 1 47.67 43.736H60.035L62.283 42.097H47.67A2.225 2.225 0 0 0 45.442 44.321" data-fill-palette-color="accent"></path><path fill="#000000" d="M47.67 23.56H70.361A2.234 2.234 0 0 0 72.59 21.33V9.919C72.59 8.688 71.59 7.685 70.361 7.685H47.67A2.233 2.233 0 0 0 45.442 9.919V21.329C45.442 22.557 46.439 23.56 47.67 23.56M47.08 19.707L59.291 10.754 67.473 21.918H47.67A0.59 0.59 0 0 1 47.08 21.329z" data-fill-palette-color="accent"></path><path fill="#000000" d="M84.379 25.028H61.686A2.23 2.23 0 0 0 59.457 27.258V38.67C59.457 39.898 60.457 40.901 61.686 40.901H63.922L66.17 39.261H61.686A0.596 0.596 0 0 1 61.094 38.669V27.259C61.094 26.931 61.364 26.664 61.686 26.664H70.951L80.18 39.262H80.093L81.281 40.902H84.381A2.24 2.24 0 0 0 86.615 38.671V27.259A2.24 2.24 0 0 0 84.379 25.028" data-fill-palette-color="accent"></path><path fill="#000000" d="M41.013 57.602L44.559 55.018V44.321A2.23 2.23 0 0 0 42.328 42.095H19.634C18.404 42.095 17.401 43.092 17.401 44.321V55.737A2.234 2.234 0 0 0 19.634 57.965H40.613C40.745 57.845 40.865 57.713 41.013 57.602M42.328 43.734C42.652 43.734 42.921 43.998 42.921 44.321V55.737C42.921 56.061 42.652 56.327 42.328 56.327H34.454L25.228 43.735z" data-fill-palette-color="accent"></path><path fill="#000000" d="M56.344 25.028H33.651A2.23 2.23 0 0 0 31.42 27.258V38.67C31.42 39.898 32.419 40.901 33.651 40.901H56.343A2.24 2.24 0 0 0 58.577 38.67V27.259A2.236 2.236 0 0 0 56.344 25.028M56.939 38.67A0.596 0.596 0 0 1 56.342 39.262H33.651A0.593 0.593 0 0 1 33.059 38.67V29.975L37.577 26.664H56.344C56.672 26.664 56.94 26.931 56.94 27.259z" data-fill-palette-color="accent"></path><path fill="#000000" d="M19.634 23.56H42.327A2.233 2.233 0 0 0 44.558 21.33V9.919A2.234 2.234 0 0 0 42.327 7.685H19.634A2.237 2.237 0 0 0 17.401 9.919V21.329A2.237 2.237 0 0 0 19.634 23.56" data-fill-palette-color="accent"></path><path fill="#000000" d="M30.542 38.67V27.259A2.235 2.235 0 0 0 28.307 25.029H5.616A2.23 2.23 0 0 0 3.387 27.259V38.67C3.387 39.898 4.387 40.901 5.616 40.901H28.307A2.237 2.237 0 0 0 30.542 38.67M21.406 38.514L28.904 33.02V38.67A0.594 0.594 0 0 1 28.307 39.262H21.95z" data-fill-palette-color="accent"></path><path fill="#000000" d="M82.924 79.619L67.9 58.695 80.715 49.345A2.554 2.554 0 0 0 81.278 45.788L76.147 38.703A2.545 2.545 0 0 0 72.569 38.142L42.707 59.916A2.557 2.557 0 0 0 42.148 63.48L47.266 70.556A2.57 2.57 0 0 0 49.344 71.618C49.881 71.618 50.412 71.444 50.858 71.119L64.16 61.424 79.166 82.314z" data-fill-palette-color="accent"></path></svg></g></svg></g><g><rect width="75.24628271443902" height="2.459639585492465" y="66.42662825764035" x="245.71819728556093" fill="#000000" data-fill-palette-color="secondary"></rect><rect width="75.24628271443902" height="2.459639585492465" y="66.42662825764035" x="76.53311999999997" fill="#000000" data-fill-palette-color="secondary"></rect></g></svg></g><defs></defs></svg><rect width="395.52" height="135.11695159899483" fill="none" stroke="none" visibility="hidden"></rect></g></svg></g></svg>